<?xml version="1.0" encoding="UTF-8"?>
<svg width="13px" height="11px" viewBox="0 0 13 11" version="1.1" xmlns="http://www.w3.org/2000/svg" xmlns:xlink="http://www.w3.org/1999/xlink">
    <title>6729549E-B528-416E-BE38-21CFD8042A22</title>
    <g id="UI-" stroke="none" stroke-width="1" fill="none" fill-rule="evenodd">
        <g id="007-copy-3_rtl-copy-7" transform="translate(-250.000000, -67.000000)" fill="#8FA595" fill-rule="nonzero">
            <g id="Group-35" transform="translate(-19.000000, -1.000000)">
                <g id="Group-4" transform="translate(216.000000, 59.000000)">
                    <g id="Group-15" transform="translate(0.000000, 3.000000)">
                        <path d="M65.1132679,10.4317923 L56.0193348,10.4317923 L58.9455508,7.51805736 C59.2932581,7.17078074 59.2932581,6.60773409 58.9455508,6.26045747 C58.5978435,5.91318084 58.0340985,5.91318084 57.6863912,6.26045747 L53.2527306,10.6886261 C53.172002,10.7728532 53.1087204,10.8721725 53.0665169,10.9808852 C52.9778277,11.1965028 52.9778277,11.4383493 53.0665169,11.6539669 C53.1087204,11.7626796 53.172002,11.861999 53.2527306,11.946226 L57.6863912,16.3743947 C57.8528899,16.5420563 58.0795349,16.6363636 58.315971,16.6363636 C58.552407,16.6363636 58.7790521,16.5420563 58.9455508,16.3743947 C59.1134204,16.2081022 59.2078446,15.9817379 59.2078446,15.7455947 C59.2078446,15.5094515 59.1134204,15.2830872 58.9455508,15.1167948 L56.0193348,12.2030598 L65.1132679,12.2030598 C65.6029965,12.2030598 66,11.8065481 66,11.3174261 C66,10.8283041 65.6029965,10.4317923 65.1132679,10.4317923 Z" id="Path"></path>
                    </g>
                </g>
            </g>
        </g>
    </g>
</svg>