<?xml version="1.0" encoding="UTF-8"?>
<svg width="10px" height="18px" viewBox="0 0 10 18" version="1.1" xmlns="http://www.w3.org/2000/svg" xmlns:xlink="http://www.w3.org/1999/xlink">
    <title>5EC93226-F211-45E7-BEFD-130BD2D02EA6</title>
    <g id="UI-" stroke="none" stroke-width="1" fill="none" fill-rule="evenodd">
        <g id="007-copy-3_rtl-copy-7" transform="translate(-345.000000, -74.000000)" fill="#2F4133">
            <g id="Group-35" transform="translate(-19.000000, -1.000000)">
                <g id="Group-4" transform="translate(216.000000, 59.000000)">
                    <g id="Group-47" transform="translate(128.000000, 0.000000)">
                        <path d="M20.3896104,25.7947761 L27.7922078,33.108209 C28.3116883,33.630597 29.0909091,33.630597 29.6103896,33.108209 C29.6103896,33.108209 29.6103896,33.108209 29.6103896,33.108209 C30.1298701,32.5858209 30.1298701,31.8022388 29.6103896,31.2798507 L23.2467532,24.75 L29.6103896,18.2201493 C30.1298701,17.6977612 30.1298701,16.9141791 29.6103896,16.391791 C29.3506494,16.130597 29.0909091,16 28.7012987,16 C28.3116883,16 28.0519481,16.130597 27.7922078,16.391791 L20.3896104,23.7052239 C19.8701299,24.358209 19.8701299,25.141791 20.3896104,25.7947761 C20.3896104,25.6641791 20.3896104,25.6641791 20.3896104,25.7947761 Z" id="Path" transform="translate(25.000000, 24.750000) scale(-1, 1) translate(-25.000000, -24.750000) "></path>
                    </g>
                </g>
            </g>
        </g>
    </g>
</svg>