<?xml version="1.0" encoding="UTF-8"?>
<svg width="15px" height="14px" viewBox="0 0 15 14" version="1.1" xmlns="http://www.w3.org/2000/svg" xmlns:xlink="http://www.w3.org/1999/xlink">
    <title>495E9956-517E-43C5-8806-994D4B39788B</title>
    <g id="UI-" stroke="none" stroke-width="1" fill="none" fill-rule="evenodd">
        <g id="007-copy-3_rtl-copy-7" transform="translate(-114.000000, -318.000000)" fill="#4C5F51">
            <g id="Group-2" transform="translate(10.000000, 221.000000)">
                <g id="Group-10" transform="translate(11.000000, 81.000000)">
                    <path d="M95.9819277,20.5830266 L95.2590361,20.5830266 C94.8072289,20.5830266 94.5361446,20.9253731 94.5361446,21.3477846 L94.5361446,27.4584867 C94.5361446,27.8799779 94.8072289,28.2223245 95.2590361,28.2223245 L95.9819277,28.2223245 L95.9819277,20.5830266 Z M103.481928,28.2223245 L103.481928,20.5830266 L102.036145,20.5830266 L98.9638554,20.5830266 L97.5180723,20.5830266 L97.5180723,28.2223245 L103.481928,28.2223245 Z M105.740964,28.2223245 L105.018072,28.2223245 L105.018072,20.5830266 L105.740964,20.5830266 C106.192771,20.5830266 106.463855,20.9253731 106.463855,21.3477846 L106.463855,27.4584867 C106.463855,27.8799779 106.192771,28.2223245 105.740964,28.2223245 Z M103.481928,19.055351 L105.740964,19.055351 C107.006024,19.055351 108,20.0814705 108,21.3477846 L108,27.4584867 C108,28.7238806 107.006024,29.75 105.740964,29.75 L95.2590361,29.75 C93.9939759,29.75 93,28.7238806 93,27.4584867 L93,21.3477846 C93,20.0814705 93.9939759,19.055351 95.2590361,19.055351 L97.5180723,19.055351 L97.5180723,18.2915133 C97.5180723,17.0261194 98.5120482,16 99.7771084,16 L101.222892,16 C102.487952,16 103.481928,17.0261194 103.481928,18.2915133 L103.481928,19.055351 Z M102.036145,19.055351 L101.222892,19.055351 L100.5,19.055351 L99.7771084,19.055351 L98.9638554,19.055351 L98.9638554,18.2915133 C98.9638554,17.8700221 99.3253012,17.5285958 99.7771084,17.5276755 L99.7771084,17.5276755 L101.222892,17.5276755 L101.222892,17.5276755 C101.674699,17.5285958 102.036145,17.8700221 102.036145,18.2915133 L102.036145,19.055351 Z" id="Shape"></path>
                </g>
            </g>
        </g>
    </g>
</svg>