<?xml version="1.0" encoding="UTF-8"?>
<svg width="18px" height="10px" viewBox="0 0 18 10" version="1.1" xmlns="http://www.w3.org/2000/svg" xmlns:xlink="http://www.w3.org/1999/xlink">
    <title>99986E32-F280-40C9-B22C-EF10568A0D19</title>
    <g id="UI-" stroke="none" stroke-width="1" fill="none" fill-rule="evenodd">
        <g id="007-copy-3_rtl-copy-7" transform="translate(-100.000000, -363.000000)" fill="#3F5845">
            <g id="Group-2" transform="translate(10.000000, 221.000000)">
                <g id="Group-17" transform="translate(16.000000, 138.000000)">
                    <path d="M74.6666667,6.27733888 C74.6666667,5.33497758 75.4374093,4.57142857 76.372577,4.57142857 L87.460994,4.57142857 C88.4064383,4.57142857 89.1669043,5.33497758 89.1669043,6.27733888 L90.8728146,6.27733888 C91.3455368,6.27733888 91.7257698,6.65859956 91.7257698,7.13029404 L91.7257698,10.5421147 C91.7257698,11.0127815 91.3455368,11.3950698 90.8728146,11.3950698 L89.1669043,11.3950698 C89.1669043,12.3374311 88.4064383,13.1009801 87.460994,13.1009801 L76.372577,13.1009801 C75.4374093,13.1009801 74.6666667,12.3374311 74.6666667,11.3950698 L74.6666667,6.27733888 Z M89.1669043,9.68915951 L89.1669043,7.98324919 L90.0198595,7.98324919 L90.0198595,9.68915951 L89.1669043,9.68915951 Z M87.460994,6.27733888 L76.372577,6.27733888 L76.372577,11.3950698 L87.460994,11.3950698 L87.460994,10.9685922 L87.460994,6.70381646 L87.460994,6.27733888 Z M77.657148,7.13029404 C77.4207869,7.13029404 77.2255321,7.32143821 77.2255321,7.55677162 L77.2255321,10.1156371 C77.2255321,10.3509705 77.4207869,10.5421147 77.657148,10.5421147 L78.5101032,10.5421147 C78.7464642,10.5421147 78.9314424,10.3509705 78.9314424,10.1156371 L78.9314424,7.55677162 C78.9314424,7.32143821 78.7464642,7.13029404 78.5101032,7.13029404 L77.657148,7.13029404 Z M79.7843976,7.55677162 C79.7843976,7.32143821 79.9796524,7.13029404 80.2160135,7.13029404 L81.0689686,7.13029404 C81.3053297,7.13029404 81.4903079,7.32143821 81.4903079,7.55677162 L81.4903079,10.1156371 C81.4903079,10.3509705 81.3053297,10.5421147 81.0689686,10.5421147 L80.2160135,10.5421147 C79.9796524,10.5421147 79.7843976,10.3509705 79.7843976,10.1156371 L79.7843976,7.55677162 Z M82.7748789,7.13029404 C82.5385179,7.13029404 82.3432631,7.32143821 82.3432631,7.55677162 L82.3432631,10.1156371 C82.3432631,10.3509705 82.5385179,10.5421147 82.7748789,10.5421147 L83.6278341,10.5421147 C83.8641952,10.5421147 84.0491734,10.3509705 84.0491734,10.1156371 L84.0491734,7.55677162 C84.0491734,7.32143821 83.8641952,7.13029404 83.6278341,7.13029404 L82.7748789,7.13029404 Z" id="Shape"></path>
                </g>
            </g>
        </g>
    </g>
</svg>