<?xml version="1.0" encoding="UTF-8"?>
<svg width="16px" height="16px" viewBox="0 0 16 16" version="1.1" xmlns="http://www.w3.org/2000/svg" xmlns:xlink="http://www.w3.org/1999/xlink">
    <title>45F4268B-71D5-42A1-8EF2-3BC0182CE528</title>
    <g id="UI-" stroke="none" stroke-width="1" fill="none" fill-rule="evenodd">
        <g id="007-copy-3_rtl-copy-7" transform="translate(-124.000000, -359.000000)" fill="#3F5845">
            <g id="Group-2" transform="translate(10.000000, 221.000000)">
                <g id="Group-17" transform="translate(16.000000, 138.000000)">
                    <path d="M104.669692,1.75943916e-14 C105.04522,1.75943916e-14 105.420748,0.34736348 105.420748,0.779220779 L105.420748,3.11688312 C105.420748,3.54874042 105.04522,3.8961039 104.669692,3.8961039 C104.200282,3.8961039 103.824754,3.54874042 103.824754,3.11688312 L103.824754,0.779220779 C103.824754,0.34736348 104.200282,1.75943916e-14 104.669692,1.75943916e-14 Z M102.228759,1.55844156 C102.228759,1.12658426 101.853231,0.779220779 101.477703,0.779220779 C101.008293,0.779220779 100.632765,1.12658426 100.632765,1.55844156 L100.632765,3.11688312 C100.632765,3.54874042 101.008293,3.8961039 101.477703,3.8961039 C101.853231,3.8961039 102.228759,3.54874042 102.228759,3.11688312 L102.228759,1.55844156 Z M110.772023,9.35064935 L110.208731,9.35064935 L110.208731,6.30887185 C110.208731,6.28070724 110.208731,6.26193084 110.208731,6.23376623 L110.772023,6.23376623 C111.616961,6.23376623 112.274136,6.92849319 112.274136,7.79220779 C112.274136,8.65592239 111.616961,9.35064935 110.772023,9.35064935 Z M107.86168,6.23376623 L108.612737,6.23376623 C108.612737,6.23376623 108.706619,6.27131904 108.706619,6.30887185 L108.706619,9.63229542 C108.706619,12.0544516 106.641214,14.025974 104.294164,14.025974 C101.853231,14.025974 99.8817087,12.0544516 99.8817087,9.63229542 L99.8817087,6.30887185 C99.8817087,6.27131904 99.8817087,6.23376623 99.8817087,6.23376623 L107.86168,6.23376623 Z M99.8817087,4.67532468 L107.86168,4.67532468 L108.612737,4.67532468 L110.772023,4.67532468 C112.4619,4.67532468 113.87013,6.0741668 113.87013,7.79220779 C113.87013,9.51024879 112.4619,10.9090909 110.772023,10.9090909 L110.114849,10.9090909 C109.457675,13.5847285 107.110624,15.5844156 104.294164,15.5844156 C100.914411,15.5844156 98.2857143,12.9181662 98.2857143,9.63229542 L98.2857143,6.30887185 C98.2857143,5.40760444 99.0367705,4.67532468 99.8817087,4.67532468 Z M108.612737,1.55844156 C108.612737,1.12658426 108.331091,0.779220779 107.86168,0.779220779 C107.39227,0.779220779 107.110624,1.12658426 107.110624,1.55844156 L107.110624,3.11688312 C107.110624,3.54874042 107.39227,3.8961039 107.86168,3.8961039 C108.331091,3.8961039 108.612737,3.54874042 108.612737,3.11688312 L108.612737,1.55844156 Z" id="Shape"></path>
                </g>
            </g>
        </g>
    </g>
</svg>