<?xml version="1.0" encoding="UTF-8"?>
<svg width="14px" height="8px" viewBox="0 0 14 8" version="1.1" xmlns="http://www.w3.org/2000/svg" xmlns:xlink="http://www.w3.org/1999/xlink">
    <title>44F5BB77-BA50-4C19-B988-B3D2F51B44DA</title>
    <g id="UI-" stroke="none" stroke-width="1" fill="none" fill-rule="evenodd">
        <g id="007-copy-3_rtl-copy-7" transform="translate(-270.000000, -179.000000)" fill="#8FA595" fill-rule="nonzero">
            <g id="Group-35" transform="translate(-19.000000, -1.000000)">
                <g id="Group-14" transform="translate(19.000000, 164.000000)">
                    <path d="M273.772727,20.8181818 L278.954545,25.9090909 C279.318182,26.2727273 279.863636,26.2727273 280.227273,25.9090909 C280.227273,25.9090909 280.227273,25.9090909 280.227273,25.9090909 C280.590909,25.5454545 280.590909,25 280.227273,24.6363636 L275.772727,20.0909091 L280.227273,15.5454545 C280.590909,15.1818182 280.590909,14.6363636 280.227273,14.2727273 C280.045455,14.0909091 279.863636,14 279.590909,14 C279.318182,14 279.136364,14.0909091 278.954545,14.2727273 L273.772727,19.3636364 C273.409091,19.8181818 273.409091,20.3636364 273.772727,20.8181818 C273.772727,20.7272727 273.772727,20.7272727 273.772727,20.8181818 Z" id="Path-Copy-2" transform="translate(277.000000, 20.090909) scale(-1, -1) rotate(90.000000) translate(-277.000000, -20.090909) "></path>
                </g>
            </g>
        </g>
    </g>
</svg>