<?xml version="1.0" encoding="UTF-8"?>
<svg width="20px" height="20px" viewBox="0 0 20 20" version="1.1" xmlns="http://www.w3.org/2000/svg" xmlns:xlink="http://www.w3.org/1999/xlink">
    <title>6DE7AA26-AFBA-42B8-B4E7-9D4C889044ED</title>
    <g id="UI-" stroke="none" stroke-width="1" fill="none" fill-rule="evenodd">
        <g id="007-copy-3_rtl-copy-7" transform="translate(-19.000000, -173.000000)" fill="#3DA954" fill-rule="nonzero">
            <g id="Group-35" transform="translate(-19.000000, -1.000000)">
                <g id="Group-14" transform="translate(19.000000, 164.000000)">
                    <path d="M36,10 L22,10 C20.3431459,10 19,11.3431458 19,13 L19,14.17 C19,14.5829429 19.0849664,14.991469 19.2500002,15.37 L19.2500002,15.43 C19.3912798,15.7509712 19.5913924,16.0426609 19.8400002,16.29 L26,22.41 L26,29 C25.9993088,29.3455015 26.1770147,29.6668845 26.4700002,29.85 C26.6291414,29.948629 26.812775,30.0006008 27,30 C27.1565424,29.9990614 27.3106779,29.9613839 27.4500002,29.89 L31.4500002,27.89 C31.7862798,27.7205498 31.9988589,27.3765582 32,27 L32,22.41 L38.1200002,16.29 C38.3686079,16.0426609 38.5687206,15.7509712 38.7100002,15.43 L38.7100002,15.37 C38.8888145,14.9944306 38.9875719,14.5857793 39,14.17 L39,13 C39,11.3431458 37.6568544,10 36,10 Z M30.2900002,21.29 C30.1028137,21.4787188 29.9984634,21.734197 30.0000002,22 L30.0000002,26.38 L28.0000002,27.38 L28.0000002,22 C28.0015369,21.734197 27.8971867,21.4787188 27.7100002,21.29 L22.4100002,16 L35.5900002,16 L30.2900002,21.29 Z M37.0000002,14 L21.0000002,14 L21.0000002,13 C21.0000002,12.4477153 21.4477154,12 22.0000002,12 L36.0000002,12 C36.5522849,12 37.0000002,12.4477153 37.0000002,13 L37.0000002,14 Z" id="Shape"></path>
                </g>
            </g>
        </g>
    </g>
</svg>