<?xml version="1.0" encoding="UTF-8"?>
<svg width="20px" height="20px" viewBox="0 0 20 20" version="1.1" xmlns="http://www.w3.org/2000/svg" xmlns:xlink="http://www.w3.org/1999/xlink">
    <title>D18340A9-5B3C-4A64-B99F-A4D312691970</title>
    <g id="UI-" stroke="none" stroke-width="1" fill="none" fill-rule="evenodd">
        <g id="007-copy-3_rtl-copy-7" transform="translate(-332.000000, -779.000000)" fill="#3DA954" fill-rule="nonzero">
            <g id="Group-42" transform="translate(0.000000, 753.000000)">
                <path d="M335.497039,31 C335.168835,30.4633755 335,29.8028548 335,29 C335,27.4170854 336.190352,26 338,26 C339.811993,26 341.273267,27.2136269 342,29.1138277 C342.726733,27.2136269 344.188007,26 346,26 C347.809648,26 349,27.4170854 349,29 C349,29.8028548 348.831165,30.4633755 348.502961,31 L350,31 C351.10457,31 352,31.8954305 352,33 L352,35 C352,36.1045695 351.10457,37 350,37 L350,44 C350,45.1045695 349.10457,46 348,46 L336,46 C334.89543,46 334,45.1045695 334,44 L334,37 C332.89543,37 332,36.1045695 332,35 L332,33 C332,31.8954305 332.89543,31 334,31 L335.497039,31 Z M341,33 L334,33 L334,35 L341,35 L341,33 Z M343,35 L350,35 L350,33 L343,33 L343,35 Z M341,44 L341,37 L336,37 L336,44 L341,44 Z M343,44 L348,44 L348,37 L343,37 L343,44 Z M338,28 C337.379648,28 337,28.4519623 337,29 C337,30.2532314 338.017001,30.8491205 340.42942,30.9744875 C340.161303,29.1115995 339.162175,28 338,28 Z M345.92942,28 C344.767245,28 343.768117,29.1115995 343.5,30.9744875 C345.912419,30.8491205 346.92942,30.2532314 346.92942,29 C346.92942,28.4519623 346.549772,28 345.92942,28 Z" id="Shape"></path>
            </g>
        </g>
    </g>
</svg>