<?xml version="1.0" encoding="UTF-8"?>
<svg width="10px" height="17px" viewBox="0 0 10 17" version="1.1" xmlns="http://www.w3.org/2000/svg" xmlns:xlink="http://www.w3.org/1999/xlink">
    <title>65ACF439-FAE6-46FA-B0BE-888047A170BF</title>
    <g id="UI-" stroke="none" stroke-width="1" fill="none" fill-rule="evenodd">
        <g id="007-copy-3_rtl-copy-7" transform="translate(-29.000000, -781.000000)" fill="#3DA954" fill-rule="nonzero">
            <g id="Group-42" transform="translate(0.000000, 753.000000)">
                <path d="M29.3506494,37.7662338 L36.012987,44.3116883 C36.4805195,44.7792208 37.1818182,44.7792208 37.6493506,44.3116883 C37.6493506,44.3116883 37.6493506,44.3116883 37.6493506,44.3116883 C38.1168831,43.8441558 38.1168831,43.1428571 37.6493506,42.6753247 L31.9220779,36.8311688 L37.6493506,30.987013 C38.1168831,30.5194805 38.1168831,29.8181818 37.6493506,29.3506494 C37.4155844,29.1168831 37.1818182,29 36.8311688,29 C36.4805195,29 36.2467532,29.1168831 36.012987,29.3506494 L29.3506494,35.8961039 C28.8831169,36.4805195 28.8831169,37.1818182 29.3506494,37.7662338 C29.3506494,37.6493506 29.3506494,37.6493506 29.3506494,37.7662338 Z" id="Path-Copy-2" transform="translate(33.500000, 36.831169) rotate(-1.000000) translate(-33.500000, -36.831169) "></path>
            </g>
        </g>
    </g>
</svg>