<?xml version="1.0" encoding="UTF-8"?>
<svg width="20px" height="20px" viewBox="0 0 20 20" version="1.1" xmlns="http://www.w3.org/2000/svg" xmlns:xlink="http://www.w3.org/1999/xlink">
    <title>0AB0B9A8-14CF-4368-9A49-1226104AEC8F</title>
    <g id="UI-" stroke="none" stroke-width="1" fill="none" fill-rule="evenodd">
        <g id="007-copy-3_rtl-copy-7" transform="translate(-21.000000, -73.000000)" fill="#3DA954" fill-rule="nonzero">
            <g id="Group-35" transform="translate(-19.000000, -1.000000)">
                <g id="Group-13" transform="translate(19.000000, 54.000000)">
                    <g id="Group-7" transform="translate(10.000000, 0.000000)">
                        <path d="M20.837037,39.6752593 C15.3851852,39.6752593 11,35.2699259 11,29.837037 C11,24.4041481 15.3851852,20 20.837037,20 C26.2888889,20 30.6740741,24.4041481 30.6740741,29.837037 C30.6740741,35.2699259 26.2888889,39.6752593 20.837037,39.6752593 Z M20.837037,21.9674074 C16.4518519,21.9674074 12.8962963,25.490963 12.8962963,29.837037 C12.8962963,34.1842963 16.4518519,37.7066667 20.837037,37.7066667 C25.2222222,37.7066667 28.6592593,34.1842963 28.6592593,29.837037 C28.6592593,25.490963 25.2222222,21.9674074 20.837037,21.9674074 Z M20.837037,28.608 C21.5481481,28.608 22.0222222,29.1579259 22.0222222,29.837037 L22.0222222,33.7718519 C22.0222222,34.450963 21.5481481,35.0020741 20.837037,35.0020741 C20.1259259,35.0020741 19.5333333,34.450963 19.5333333,33.7718519 L19.5333333,29.837037 C19.5333333,29.1579259 20.1259259,28.608 20.837037,28.608 Z M20.837037,24.9185185 C20.1259259,24.9185185 19.5333333,25.4696296 19.5333333,26.1487407 C19.5333333,26.8278519 20.1259259,27.3777778 20.837037,27.3777778 C21.5481481,27.3777778 22.0222222,26.8278519 22.0222222,26.1487407 C22.0222222,25.4696296 21.5481481,24.9185185 20.837037,24.9185185 Z" id="Shape"></path>
                    </g>
                </g>
            </g>
        </g>
    </g>
</svg>