<?xml version="1.0" encoding="UTF-8"?>
<svg width="20px" height="20px" viewBox="0 0 20 20" version="1.1" xmlns="http://www.w3.org/2000/svg" xmlns:xlink="http://www.w3.org/1999/xlink">
    <title>1C2BD1EE-2712-4998-A6B9-2FCED44A09C1</title>
    <g id="UI-" stroke="none" stroke-width="1" fill="none" fill-rule="evenodd">
        <g id="007-copy-3_rtl-copy-7" transform="translate(-33.000000, -315.000000)" fill="#8EA494">
            <g id="Group-2" transform="translate(10.000000, 221.000000)">
                <g id="Group-10" transform="translate(11.000000, 81.000000)">
                    <path d="M21.837037,32.6752593 C16.3851852,32.6752593 12,28.2699259 12,22.837037 C12,17.4041481 16.3851852,13 21.837037,13 C27.2888889,13 31.6740741,17.4041481 31.6740741,22.837037 C31.6740741,28.2699259 27.2888889,32.6752593 21.837037,32.6752593 Z M21.837037,14.9674074 C17.4518519,14.9674074 13.8962963,18.490963 13.8962963,22.837037 C13.8962963,27.1842963 17.4518519,30.7066667 21.837037,30.7066667 C26.2222222,30.7066667 29.6592593,27.1842963 29.6592593,22.837037 C29.6592593,18.490963 26.2222222,14.9674074 21.837037,14.9674074 Z M21.837037,21.608 C22.5481481,21.608 23.0222222,22.1579259 23.0222222,22.837037 L23.0222222,26.7718519 C23.0222222,27.450963 22.5481481,28.0020741 21.837037,28.0020741 C21.1259259,28.0020741 20.5333333,27.450963 20.5333333,26.7718519 L20.5333333,22.837037 C20.5333333,22.1579259 21.1259259,21.608 21.837037,21.608 Z M21.837037,17.9185185 C21.1259259,17.9185185 20.5333333,18.4696296 20.5333333,19.1487407 C20.5333333,19.8278519 21.1259259,20.3777778 21.837037,20.3777778 C22.5481481,20.3777778 23.0222222,19.8278519 23.0222222,19.1487407 C23.0222222,18.4696296 22.5481481,17.9185185 21.837037,17.9185185 Z" id="Shape"></path>
                </g>
            </g>
        </g>
    </g>
</svg>