<?xml version="1.0" encoding="UTF-8"?>
<svg width="8px" height="16px" viewBox="0 0 8 16" version="1.1" xmlns="http://www.w3.org/2000/svg" xmlns:xlink="http://www.w3.org/1999/xlink">
    <title>D61E2755-383B-4F4E-8F34-240D8EC0717F</title>
    <g id="UI-" stroke="none" stroke-width="1" fill="none" fill-rule="evenodd">
        <g id="007-copy-3_rtl-copy-7" transform="translate(-186.000000, -317.000000)" fill="#4C5F51">
            <g id="Group-2" transform="translate(10.000000, 221.000000)">
                <g id="Group-10" transform="translate(11.000000, 81.000000)">
                    <path d="M168.958271,22.125842 L167.374963,22.125842 C166.936215,22.125842 166.583308,22.4797019 166.583308,22.9174963 L166.583308,23.6690909 L166.583308,25.292459 L167.374963,25.292459 C167.813711,25.292459 168.166617,25.6463189 168.166617,26.0841133 L168.166617,26.1232191 L168.166617,27.6674218 L168.166617,29.1715648 C168.166617,29.2116244 168.185693,29.2383308 168.195231,29.2507303 L169.730849,29.2507303 C169.740387,29.2383308 169.749925,29.2116244 169.749925,29.1715648 L169.749925,26.0955589 C169.749925,25.6577645 170.102832,25.3029508 170.54158,25.3029508 L171.075708,25.3029508 L171.333234,25.3029508 L171.333234,23.5107601 L171.333234,22.9174963 C171.333234,22.4797019 170.980328,22.125842 170.54158,22.125842 L168.958271,22.125842 Z M166.583308,27.6674218 L166.583308,26.8757675 L165.791654,26.8757675 C165.352906,26.8757675 165,26.5209538 165,26.0841133 L165,23.6690909 L165,22.9174963 C165,22.0247392 165.495976,21.247392 166.220864,20.841073 C165.705812,20.2239642 165.400596,19.4294486 165.400596,18.5624441 C165.400596,16.5957079 166.993443,15 168.958271,15 C170.9231,15 172.525484,16.5957079 172.525484,18.5624441 C172.525484,19.4294486 172.21073,20.2239642 171.695678,20.841073 C172.430104,21.247392 172.916542,22.0247392 172.916542,22.9174963 L172.916542,23.5107601 L172.916542,26.0955589 C172.916542,26.5323994 172.563636,26.8872131 172.124888,26.8872131 L171.333234,26.8872131 L171.333234,29.1715648 C171.333234,30.0166319 170.694188,30.8340387 169.749925,30.8340387 L168.166617,30.8340387 C167.222355,30.8340387 166.583308,30.0166319 166.583308,29.1715648 L166.583308,27.6674218 Z M168.958271,20.5415797 C170.055142,20.5415797 170.942176,19.6554993 170.942176,18.5624441 C170.942176,17.469389 170.055142,16.5833085 168.958271,16.5833085 C167.870939,16.5833085 166.983905,17.469389 166.983905,18.5624441 C166.983905,19.6554993 167.870939,20.5415797 168.958271,20.5415797 Z" id="Shape"></path>
                </g>
            </g>
        </g>
    </g>
</svg>