<?xml version="1.0" encoding="UTF-8"?>
<svg width="18px" height="15px" viewBox="0 0 18 15" version="1.1" xmlns="http://www.w3.org/2000/svg" xmlns:xlink="http://www.w3.org/1999/xlink">
    <title>03DFF69B-5FE3-43B8-A7C7-34A81961900F</title>
    <g id="UI-" stroke="none" stroke-width="1" fill="none" fill-rule="evenodd">
        <g id="007-copy-3_rtl-copy-7" transform="translate(-77.000000, -359.000000)" fill="#3F5845" stroke="#3F5845" stroke-width="0.5">
            <g id="Group-2" transform="translate(10.000000, 221.000000)">
                <g id="Group-17" transform="translate(16.000000, 138.000000)">
                    <path d="M54.7186147,1.80668052 C54.5281385,1.61844523 54.1991342,1.61844523 54.008658,1.80668052 C53.8181818,1.99491581 53.8181818,2.3200495 54.008658,2.5082848 L58.4588745,6.90614576 L53.0735931,6.90614576 C52.3809524,6.90614576 51.8095238,7.47085164 51.8095238,8.15534362 L51.8095238,9.76389977 C51.8095238,10.4483918 52.3809524,11.0130976 53.0735931,11.0130976 L62.6147186,11.0130976 L65.3506494,13.7168409 C65.4545455,13.8195147 65.5757576,13.8708516 65.7142857,13.8708516 C65.8528139,13.8708516 65.974026,13.8195147 66.0779221,13.7168409 C66.2683983,13.5286057 66.2683983,13.203472 66.0779221,13.0152367 L54.7186147,1.80668052 Z M52.8311688,9.76389977 L52.8311688,8.15534362 C52.8311688,8.01844523 52.9350649,7.91577143 53.0735931,7.91577143 L55.030303,7.91577143 L55.030303,10.003472 L53.0735931,10.003472 C52.9350649,10.0205843 52.8311688,9.90079817 52.8311688,9.76389977 Z M66.995671,6.92325806 C67.6883117,6.92325806 68.2597403,7.47085164 68.2597403,8.17245592 L68.2597403,8.17245592 L68.2597403,9.78101207 C68.2597403,10.465504 67.6883117,11.0302099 66.995671,11.0302099 L66.995671,11.0302099 L65.4025974,11.0302099 L64.3809524,10.0205843 L67.012987,10.0205843 C67.1341991,10.0205843 67.2554113,9.91791047 67.2554113,9.78101207 L67.2554113,9.78101207 L67.2554113,8.17245592 C67.2554113,8.03555753 67.1515152,7.93288373 67.012987,7.93288373 L67.012987,7.93288373 L62.2683983,7.93288373 L61.2467532,6.92325806 Z M59.4632035,7.91577143 L61.5930736,10.0205843 L56.034632,10.0205843 L56.034632,7.91577143 L59.4632035,7.91577143 Z M61.6623377,0.762830253 C61.9393939,0.745717953 62.1818182,0.968177846 62.1991342,1.24197464 C62.2510823,2.3029372 62.7359307,2.4227233 64.969697,2.4740602 L64.969697,2.4740602 L65.3506494,2.4911725 C66.04329,2.5082848 66.6147186,2.74785699 67.030303,3.20988908 C67.8961039,4.15106555 67.8095238,5.6911725 67.8095238,5.7596217 C67.7922078,6.01630619 67.5670996,6.22165378 67.3073593,6.22165378 L67.3073593,6.22165378 L67.2727273,6.22165378 C66.995671,6.20454148 66.7878788,5.96496929 66.8051948,5.6911725 C66.8051948,5.6740602 66.8744589,4.51042384 66.2857143,3.87726876 C66.04329,3.62058426 65.7316017,3.50079817 65.3333333,3.48368587 L65.3333333,3.48368587 L64.952381,3.46657357 C62.978355,3.43234897 61.2813853,3.38101207 61.1774892,1.29331154 C61.1601732,1.00240245 61.3852814,0.779942552 61.6623377,0.762830253 Z M60.017316,0.762830253 C60.2943723,0.762830253 60.5194805,0.985290146 60.5194805,1.25908694 C60.5194805,4.03127945 61.5411255,4.04839175 64.017316,4.08261635 C64.8138528,4.09972865 65.3852814,4.32218854 65.7316017,4.73288373 C66.1298701,5.21202811 66.0606061,5.7425094 66.04329,5.8109586 C65.991342,6.05053079 65.7835498,6.22165378 65.5411255,6.22165378 L65.5411255,6.22165378 L65.4545455,6.22165378 C65.1774892,6.18742918 65.004329,5.93074469 65.038961,5.6569479 C65.038961,5.6398356 65.038961,5.48582491 64.9350649,5.36603881 C64.7965368,5.19491581 64.4502165,5.09224202 64,5.09224202 C61.5930736,5.04090512 59.4978355,5.02379282 59.5151515,1.25908694 C59.5151515,0.985290146 59.7402597,0.762830253 60.017316,0.762830253 Z" id="nosmoke"></path>
                </g>
            </g>
        </g>
    </g>
</svg>