<?xml version="1.0" encoding="UTF-8"?>
<svg width="16px" height="15px" viewBox="0 0 16 15" version="1.1" xmlns="http://www.w3.org/2000/svg" xmlns:xlink="http://www.w3.org/1999/xlink">
    <title>630CB482-7651-414E-95FF-5DCBF163D023</title>
    <g id="UI-" stroke="none" stroke-width="1" fill="none" fill-rule="evenodd" stroke-opacity="0">
        <g id="007-copy-3_rtl-copy-7" transform="translate(-279.000000, -264.000000)" fill="#FFAC00" fill-rule="nonzero" stroke="#000000">
            <g id="Group-2" transform="translate(10.000000, 221.000000)">
                <g id="Group-8" transform="translate(247.000000, 42.000000)">
                    <path d="M36.8580473,7.67567302 C37.1546723,7.34970399 37.2537351,6.88971231 37.117582,6.47054109 C36.9814289,6.05136987 36.6309684,5.73739012 36.1994109,5.64794575 L32.6566836,4.94840029 C32.5527594,4.92743141 32.4631367,4.862206 32.4112291,4.76976393 L30.6535018,1.61976393 C30.4352101,1.23659527 30.0281251,1 29.5871382,1 C29.1461512,1 28.7390662,1.23659527 28.5207745,1.61976393 L26.7671382,4.76703665 C26.7149332,4.85979829 26.6247497,4.92506926 26.52032,4.94567302 L22.98032,5.64521847 C22.5476888,5.73409961 22.1961825,6.04858977 22.0599055,6.46870664 C21.9236285,6.8888235 22.0236016,7.34976401 22.3216836,7.67567302 L24.7762291,10.3197639 C24.8480821,10.3978403 24.8819893,10.5035509 24.8689564,10.6088548 L24.4380473,14.1870367 C24.3994266,14.532363 24.5090021,14.8778755 24.7395803,15.1378284 C24.9701585,15.3977813 25.3001253,15.5478068 25.6475927,15.550673 C25.8256868,15.5503433 26.0015754,15.5112569 26.1630473,15.4361276 L29.4357745,13.9224912 C29.5322454,13.8779514 29.6433946,13.8779514 29.7398654,13.9224912 L33.0125927,15.4361276 C33.4143056,15.617551 33.8824572,15.5696156 34.2390666,15.3105452 C34.5956759,15.0514749 34.785966,14.6210641 34.7375927,14.1829457 L34.3080473,10.6074912 C34.2953562,10.5017338 34.330332,10.3958074 34.4035018,10.3184003 L36.8580473,7.67567302 Z" id="Path-5"></path>
                </g>
            </g>
        </g>
    </g>
</svg>