<?xml version="1.0" encoding="UTF-8"?>
<svg width="12px" height="18px" viewBox="0 0 12 18" version="1.1" xmlns="http://www.w3.org/2000/svg" xmlns:xlink="http://www.w3.org/1999/xlink">
    <title>6273FD4A-1CB2-4C06-A8BD-4E7DD1C8ACAD</title>
    <g id="UI-" stroke="none" stroke-width="1" fill="none" fill-rule="evenodd">
        <g id="007-copy-3_rtl-copy-7" transform="translate(-156.000000, -174.000000)" fill="#8FA595" fill-rule="nonzero">
            <g id="Group-35" transform="translate(-19.000000, -1.000000)">
                <g id="Group-14" transform="translate(19.000000, 164.000000)">
                    <path d="M166.294092,22.2957983 L162.004092,26.5957983 L157.714092,22.2957983 C157.321969,21.9036762 156.686214,21.9036762 156.294092,22.2957983 C155.901969,22.6879205 155.901969,23.3236762 156.294092,23.7157983 L161.294092,28.7157983 C161.481858,28.905111 161.737454,29.0115966 162.004092,29.0115966 C162.270729,29.0115966 162.526325,28.905111 162.714092,28.7157983 L167.714092,23.7157983 C167.96775,23.4621398 168.066815,23.0924243 167.97397,22.7459203 C167.881124,22.3994162 167.610474,22.1287658 167.26397,22.0359203 C166.917466,21.9430748 166.54775,22.0421398 166.294092,22.2957983 L166.294092,22.2957983 Z M157.714092,17.7157983 L162.004092,13.4157983 L166.294092,17.7157983 C166.481858,17.905111 166.737454,18.0115966 167.004092,18.0115966 C167.270729,18.0115966 167.526325,17.905111 167.714092,17.7157983 C167.903404,17.5280317 168.00989,17.2724359 168.00989,17.0057983 C168.00989,16.7391608 167.903404,16.4835649 167.714092,16.2957983 L162.714092,11.2957983 C162.526325,11.1064857 162.270729,11 162.004092,11 C161.737454,11 161.481858,11.1064857 161.294092,11.2957983 L156.294092,16.2957983 C155.901969,16.6879205 155.901969,17.3236761 156.294092,17.7157983 C156.686214,18.1079205 157.321969,18.1079205 157.714092,17.7157983 L157.714092,17.7157983 Z" id="Shape"></path>
                </g>
            </g>
        </g>
    </g>
</svg>