<?xml version="1.0" encoding="UTF-8"?>
<svg width="14px" height="13px" viewBox="0 0 14 13" version="1.1" xmlns="http://www.w3.org/2000/svg" xmlns:xlink="http://www.w3.org/1999/xlink">
    <title>01594236-5730-4EC5-865F-5527C83F9B87</title>
    <g id="UI-" stroke="none" stroke-width="1" fill="none" fill-rule="evenodd">
        <g id="007-copy-3_rtl-copy-7" transform="translate(-26.000000, -360.000000)" fill="#3F5845">
            <g id="Group-2" transform="translate(10.000000, 221.000000)">
                <g id="Group-17" transform="translate(16.000000, 138.000000)">
                    <path d="M6.92640693,5.66810967 C6.09190007,5.66810967 5.50774527,5.06529437 5.50774527,4.32130832 C5.50774527,3.57732228 6.09190007,2.97450697 6.92640693,2.97450697 C7.6774631,2.97450697 8.2616179,3.57732228 8.2616179,4.32130832 C8.2616179,5.06529437 7.6774631,5.66810967 6.92640693,5.66810967 Z M9.17957544,5.86120528 C9.68027956,6.0948672 10.097533,6.52162474 10.2644344,7.04411875 L11.5996453,6.01779122 C12.5176029,5.3119375 13.8528139,5.93990392 13.8528139,7.06926986 L13.8528139,12.3477576 C13.8528139,13.4771235 12.5176029,14.1050899 11.5996453,13.4000475 L10.2644344,12.3729087 C10.0140823,13.1728762 9.17957544,13.7489177 8.2616179,13.7489177 L2.08626715,13.7489177 C0.917957544,13.7489177 -1.35341473e-15,12.8442891 -1.35341473e-15,11.7287157 L-1.35341473e-15,7.68831169 C-1.35341473e-15,7.07089252 0.250352058,6.51837943 0.667605487,6.1476034 C0.250352058,5.66729834 -1.35341473e-15,5.02553939 -1.35341473e-15,4.32130832 C-1.35341473e-15,2.83333623 1.25176029,1.62770563 2.75387263,1.62770563 C3.58837949,1.62770563 4.33943566,1.97982116 4.84013978,2.53963618 C5.3408439,1.97982116 6.09190007,1.62770563 6.92640693,1.62770563 C8.42851927,1.62770563 9.68027956,2.83333623 9.68027956,4.32130832 C9.68027956,4.89410456 9.51337819,5.42471183 9.17957544,5.86120528 Z M4.08908361,4.32130832 C4.08908361,5.06529437 3.50492881,5.66810967 2.75387263,5.66810967 C2.00281646,5.66810967 1.33521097,5.06529437 1.33521097,4.32130832 C1.33521097,3.57732228 2.00281646,2.97450697 2.75387263,2.97450697 C3.50492881,2.97450697 4.08908361,3.57732228 4.08908361,4.32130832 Z M2.08626715,7.01491101 L2.75387263,7.01491101 L6.92640693,7.01491101 L8.2616179,7.01491101 C8.67887133,7.01491101 9.01267407,7.31672433 9.01267407,7.68831169 L9.01267407,11.7287157 C9.01267407,12.1011144 8.67887133,12.4021164 8.2616179,12.4021164 L2.08626715,12.4021164 C1.66901372,12.4021164 1.33521097,12.1011144 1.33521097,11.7287157 L1.33521097,7.68831169 C1.33521097,7.31672433 1.66901372,7.01491101 2.08626715,7.01491101 Z M10.347885,8.68543148 L10.347885,10.7315959 L12.4341522,12.3477576 L12.4341522,7.06926986 L10.347885,8.68543148 Z" id="Shape"></path>
                </g>
            </g>
        </g>
    </g>
</svg>