<?xml version="1.0" encoding="UTF-8"?>
<svg width="18px" height="13px" viewBox="0 0 18 13" version="1.1" xmlns="http://www.w3.org/2000/svg" xmlns:xlink="http://www.w3.org/1999/xlink">
    <title>3386BBE2-1CA6-496E-B064-3B6E22E13DBD</title>
    <g id="UI-" stroke="none" stroke-width="1" fill="none" fill-rule="evenodd">
        <g id="007-copy-3_rtl-copy-7" transform="translate(-52.000000, -360.000000)" fill="#3F5845">
            <g id="Group-2" transform="translate(10.000000, 221.000000)">
                <g id="Group-17" transform="translate(16.000000, 138.000000)">
                    <path d="M36.2523191,1.81118375 C38.9321789,2.02763396 41.5089672,3.15317509 43.4673263,5.00537051 C43.4673263,5.01155481 43.4673263,5.01876981 43.4673263,5.0249541 L43.4673263,5.0249541 C43.4673263,5.03216911 43.4673263,5.03938412 43.4673263,5.04556841 C43.5703979,5.17543854 43.6734694,5.347568 43.6734694,5.52382032 C43.6734694,5.70007264 43.5703979,5.86498709 43.4673263,5.98455006 C43.3642548,6.05566942 43.2611833,6.10720519 43.1581117,6.13400379 C43.2611833,6.10720519 43.3642548,6.05566942 43.4673263,5.98455006 C43.5703979,5.86498709 43.6734694,5.70007264 43.6734694,5.52382032 C43.6734694,5.347568 43.5703979,5.17543854 43.4673263,5.04556841 C43.4673263,5.03938412 43.4673263,5.03216911 43.4673263,5.02598482 L43.4673263,5.02598482 L43.4673263,5.02598482 L43.4673263,5.0249541 L43.4673263,5.0249541 L43.4673263,5.0249541 C43.4673263,5.01876981 43.4673263,5.01155481 43.4673263,5.00537051 C41.5089672,3.15317509 38.9321789,2.02763396 36.2523191,1.81118375 Z M35.2216038,3.09545503 C32.541744,3.09957789 29.9649557,4.13029321 28.0065966,5.96290504 C27.903525,6.06906872 27.697382,6.12575806 27.4912389,6.1216352 C27.697382,6.12575806 27.903525,6.06906872 28.0065966,5.96290504 C29.9649557,4.13029321 32.541744,3.09957789 35.2216038,3.09545503 C35.3246753,3.09545503 35.4277469,3.09648575 35.5308184,3.09854718 C35.4277469,3.09648575 35.3246753,3.09545503 35.2216038,3.09545503 Z M35.2216038,3.23975518 C37.9014636,3.23666303 40.4782519,4.2436719 42.3335395,6.04123941 C42.5396825,6.19893885 42.7458256,6.29170323 42.9519687,6.30201038 C43.1581117,6.31128682 43.3642548,6.2360446 43.5703979,6.09071374 C43.6734694,5.9464136 43.7765409,5.7443934 43.7765409,5.53000461 C43.8796125,5.31561582 43.7765409,5.10638061 43.5703979,4.94765046 L43.5703979,4.94249688 L43.5703979,4.9373433 C43.5703979,4.93218973 43.5703979,4.92703615 43.5703979,4.92085186 L43.5703979,4.91982114 C43.5703979,4.91466757 43.5703979,4.90745256 43.5703979,4.90023755 C41.3028242,2.80067045 38.3137497,1.62359356 35.2216038,1.62770563 C32.1294578,1.63183928 29.1403834,2.81819261 26.9758813,4.92497472 L26.9758813,4.92497472 L26.8728097,4.93322044 C26.7697382,5.08782774 26.6666667,5.2867558 26.6666667,5.48980671 C26.7697382,5.69388835 26.7697382,5.88663211 26.9758813,6.02990154 C27.0789528,6.17420168 27.2850959,6.25872034 27.4912389,6.26593535 C27.697382,6.27418107 27.903525,6.20512314 28.1096681,6.07216087 L28.1096681,6.07216087 L28.1096681,6.06494586 C29.9649557,4.26016334 32.541744,3.24387804 35.2216038,3.23975518 Z M29.8618841,8.30778239 C29.9649557,8.30262881 30.1710987,8.24387804 30.2741703,8.14080651 C31.5110287,6.99465107 33.0571016,6.30613324 34.7062461,6.19275456 C33.0571016,6.30613324 31.5110287,6.99465107 30.2741703,8.14080651 C30.1710987,8.24387804 29.9649557,8.30262881 29.8618841,8.30778239 Z M29.3465265,7.204917 L29.3465265,7.204917 L29.243455,7.10906047 C29.0373119,7.26263706 28.9342404,7.46362654 28.9342404,7.66873889 C29.0373119,7.87488195 29.0373119,8.07071786 29.243455,8.21604872 C29.3465265,8.36137958 29.5526696,8.44589824 29.7588126,8.45208253 C30.0680272,8.45826682 30.2741703,8.38508604 30.3772418,8.2480009 L30.3772418,8.24903161 L30.3772418,8.24284732 C31.7171717,7.01217323 33.4693878,6.32056326 35.2216038,6.32056326 C37.0768914,6.32056326 38.8291074,7.01217323 40.0659658,8.24284732 L40.0659658,8.24284732 L40.0659658,8.2480009 C40.2721088,8.38508604 40.4782519,8.45826682 40.684395,8.45208253 C40.890538,8.44589824 41.0966811,8.36137958 41.3028242,8.21604872 C41.4058957,8.07071786 41.5089672,7.87488195 41.5089672,7.66873889 C41.5089672,7.46362654 41.4058957,7.26263706 41.3028242,7.10906047 L41.3028242,7.10906047 L41.3028242,7.10287618 C39.6536797,5.57123322 37.4891775,4.70955522 35.2216038,4.70955522 C32.9540301,4.70955522 30.7895279,5.57123322 29.243455,7.10287618 L29.3465265,7.204917 Z M35.2216038,4.85488608 C37.4891775,4.85488608 39.6536797,5.70007264 41.1997526,7.204917 C41.3028242,7.33169498 41.4058957,7.49557872 41.4058957,7.66461603 C41.4058957,7.83365334 41.3028242,7.99444493 41.1997526,8.11400791 C40.9936096,8.23254017 40.890538,8.30262881 40.684395,8.30778239 C40.890538,8.30262881 40.9936096,8.23254017 41.1997526,8.11400791 C41.3028242,7.99444493 41.4058957,7.83365334 41.4058957,7.66461603 C41.4058957,7.49557872 41.3028242,7.33169498 41.1997526,7.204917 C39.6536797,5.70007264 37.4891775,4.85488608 35.2216038,4.85488608 C35.2216038,4.85488608 35.1185323,4.85591679 35.0154607,4.85694751 C35.1185323,4.85591679 35.2216038,4.85488608 35.2216038,4.85488608 Z M32.1294578,10.4259024 C32.2325294,10.4300252 32.4386724,10.3723052 32.541744,10.2661415 C33.2632447,9.58586938 34.1908885,9.203474 35.2216038,9.203474 C35.3246753,9.203474 35.3246753,9.203474 35.3246753,9.20450471 C35.3246753,9.203474 35.3246753,9.203474 35.2216038,9.203474 C34.1908885,9.203474 33.2632447,9.58586938 32.541744,10.2661415 C32.4386724,10.3723052 32.2325294,10.4289945 32.1294578,10.4259024 Z M38.4168213,10.4970217 C38.5198928,10.4990832 38.6229643,10.4836224 38.7260359,10.4516702 C38.8291074,10.4186874 38.8291074,10.3681823 38.9321789,10.3032472 C39.0352505,10.2383122 39.0352505,10.1610085 39.138322,10.0764899 C39.138322,9.9909405 39.138322,9.90023755 39.138322,9.80850389 C39.138322,9.71780094 39.138322,9.62812871 39.0352505,9.54567148 C39.0352505,9.46321426 38.9321789,9.39003347 38.9321789,9.3312827 C38.0045351,8.48197328 36.8707483,7.97383063 35.6338899,7.89343483 C36.8707483,7.97383063 38.0045351,8.48197328 38.9321789,9.3312827 C38.9321789,9.39003347 39.0352505,9.46321426 39.0352505,9.54567148 C39.138322,9.62812871 39.138322,9.71780094 39.138322,9.80850389 C39.138322,9.90023755 39.138322,9.9909405 39.138322,10.0764899 C39.0352505,10.1610085 39.0352505,10.2383122 38.9321789,10.3032472 C38.8291074,10.3671516 38.8291074,10.4186874 38.7260359,10.4516702 C38.6229643,10.4836224 38.5198928,10.4990832 38.4168213,10.4970217 Z M31.5110287,9.22821117 L31.5110287,9.22821117 L31.5110287,9.23645689 C31.3048856,9.39106419 31.3048856,9.58999224 31.3048856,9.79304316 C31.3048856,9.99712479 31.4079571,10.1898686 31.5110287,10.3341687 C31.6141002,10.4774381 31.8202432,10.5619568 32.1294578,10.5702025 C32.3356009,10.5774175 32.541744,10.5083596 32.6448155,10.3753973 L32.6448155,10.376428 L32.6448155,10.3681823 C33.3663162,9.71470879 34.29396,9.34777414 35.2216038,9.34777414 C36.2523191,9.34777414 37.1799629,9.71367808 37.7983921,10.3650902 C37.9014636,10.4475474 38.0045351,10.5145439 38.1076067,10.5619568 C38.2106782,10.6104004 38.3137497,10.637199 38.4168213,10.6413219 C38.5198928,10.6454447 38.6229643,10.6268918 38.7260359,10.586694 C38.8291074,10.5454653 38.9321789,10.4836224 39.0352505,10.4052881 C39.138322,10.3269537 39.2413935,10.2321279 39.2413935,10.1290564 C39.2413935,10.0249541 39.3444651,9.91466757 39.3444651,9.80335031 C39.3444651,9.69203306 39.2413935,9.58277723 39.2413935,9.48279785 C39.138322,9.38487989 39.138322,9.29623838 39.0352505,9.22511902 C38.0045351,8.27273807 36.6646052,7.73779682 35.2216038,7.73779682 C33.8816739,7.73779682 32.4386724,8.27376878 31.5110287,9.22821117 Z M35.2216038,13.4603283 C35.2216038,13.4603283 35.2216038,13.4603283 35.2216038,13.4603283 C36.046176,13.4603283 36.6646052,12.8717898 36.6646052,12.1451355 C36.6646052,11.4277577 36.046176,10.8443728 35.3246753,10.8289121 C36.046176,10.8443728 36.6646052,11.4277577 36.6646052,12.1451355 C36.6646052,12.8717898 36.046176,13.4603283 35.2216038,13.4603283 C35.2216038,13.4603283 35.2216038,13.4603283 35.2216038,13.4603283 Z M35.2216038,13.6056591 C36.046176,13.6056591 36.7676768,12.9511549 36.7676768,12.1451355 C36.7676768,11.3380854 36.046176,10.6835812 35.2216038,10.6835812 C34.3970315,10.6835812 33.6755308,11.3380854 33.6755308,12.1451355 C33.6755308,12.9511549 34.3970315,13.6056591 35.2216038,13.6056591 Z" id="Shape"></path>
                </g>
            </g>
        </g>
    </g>
</svg>